<svg width="28" height="21" viewBox="0 0 28 21" fill="none" xmlns="http://www.w3.org/2000/svg">
<path d="M25.4032 21.0008H1.69355C0.758233 21.0008 0 20.2425 0 19.3072V15.9201C0 14.9848 0.758233 14.2266 1.69355 14.2266H10.8387L13.0065 16.3266L13.2774 16.5637H13.5484L13.8109 16.5721L14.0734 16.3435L16.2581 14.2266H25.4032C26.3385 14.2266 27.0968 14.9848 27.0968 15.9201V19.3072C27.0968 20.2425 26.3385 21.0008 25.4032 21.0008ZM22.8629 16.3435C22.1614 16.3435 21.5927 16.9122 21.5927 17.6137C21.5927 18.3152 22.1614 18.8838 22.8629 18.8838C23.5644 18.8838 24.1331 18.3152 24.1331 17.6137C24.1331 16.9122 23.5644 16.3435 22.8629 16.3435ZM19.4758 16.3435C18.7743 16.3435 18.2056 16.9122 18.2056 17.6137C18.2056 18.3152 18.7743 18.8838 19.4758 18.8838C20.1773 18.8838 20.746 18.3152 20.746 17.6137C20.746 16.9122 20.1773 16.3435 19.4758 16.3435Z" fill="black" fill-opacity="0.5"/>
<path d="M15.3203 9.64635L15.3203 0.659747C15.3203 0.386488 15.0823 6.57711e-08 14.7887 5.29393e-08L12.3081 -2.67414e-07C12.0145 -2.80246e-07 11.7765 0.386488 11.7765 0.659747L11.7765 9.64635L9.73622 9.64635C8.78906 9.64635 8.31473 10.7123 8.98445 11.3358L12.7966 14.8843C13.2118 15.2708 13.885 15.2708 14.3001 14.8843L18.1123 11.3358C18.782 10.7123 18.3077 9.64635 17.3605 9.64635L15.3203 9.64635Z" fill="black" fill-opacity="0.5"/>
</svg>
