<svg width="15" height="21" viewBox="0 0 15 21" fill="none" xmlns="http://www.w3.org/2000/svg">
<path d="M7.55545 13.1282C9.2418 13.1282 10.5929 11.749 10.5929 10.0405L10.6031 3.86506C10.6031 2.15653 9.2418 0.777344 7.55545 0.777344C5.8691 0.777344 4.50783 2.15653 4.50783 3.86506V10.0405C4.50783 11.749 5.8691 13.1282 7.55545 13.1282ZM12.9396 10.0405C12.9396 13.1282 10.3593 15.2896 7.55545 15.2896C4.75164 15.2896 2.17132 13.1282 2.17132 10.0405H0.444336C0.444336 13.5605 3.20751 16.4527 6.53957 16.957V20.3329H8.57132V16.957C11.9034 16.463 14.6666 13.5605 14.6666 10.0405H12.9396Z" fill="#757575"/>
</svg>
