<svg width="23" height="22" viewBox="0 0 23 22" fill="none" xmlns="http://www.w3.org/2000/svg">
<path d="M22.6872 19.0204L18.2082 14.7368C18.006 14.5435 17.732 14.4361 17.4444 14.4361H16.7122C17.9521 12.9194 18.6889 11.0118 18.6889 8.93663C18.6889 4 14.5063 0 9.34443 0C4.18253 0 0 4 0 8.93663C0 13.8733 4.18253 17.8733 9.34443 17.8733C11.5143 17.8733 13.509 17.1686 15.0949 15.9828V16.6831C15.0949 16.9581 15.2072 17.2202 15.4093 17.4135L19.8884 21.6971C20.3107 22.101 20.9935 22.101 21.4113 21.6971L22.6827 20.4812C23.105 20.0773 23.105 19.4243 22.6872 19.0204ZM9.34443 14.4361C6.16822 14.4361 3.59401 11.9785 3.59401 8.93663C3.59401 5.89903 6.16373 3.43716 9.34443 3.43716C12.5206 3.43716 15.0949 5.89474 15.0949 8.93663C15.0949 11.9742 12.5251 14.4361 9.34443 14.4361Z" fill="black" fill-opacity="0.5"/>
</svg>
