<svg width="18" height="24" viewBox="0 0 18 24" fill="none" xmlns="http://www.w3.org/2000/svg">
<path d="M12.9595 -2.20329e-07L13.6794 -1.8886e-07C14.2758 -1.6279e-07 14.7593 0.503672 14.7593 1.125L14.7593 18L16.919 18C17.8804 18 18.3608 19.214 17.6827 19.9205L14.083 23.6705C13.6613 24.1098 12.9775 24.1098 12.5559 23.6705L8.95623 19.9205C8.28076 19.2167 8.75438 18 9.7198 18L11.8796 18L11.8796 1.125C11.8796 0.503672 12.363 -2.46399e-07 12.9595 -2.20329e-07ZM6.12018 22.875L6.12019 6L8.27996 6C9.23898 6 9.7234 4.78772 9.04357 4.07948L5.44395 0.329484C5.02221 -0.109829 4.33846 -0.109829 3.91677 0.329484L0.317152 4.07948C-0.358992 4.78392 0.116159 6 1.08072 6L3.24049 6L3.24049 22.875C3.24049 23.4963 3.72396 24 4.32038 24L5.0403 24C5.63671 24 6.12018 23.4963 6.12018 22.875Z" fill="black" fill-opacity="0.5"/>
</svg>
